<?xml version="1.0" standalone="no"?>
<!DOCTYPE svg PUBLIC "-//W3C//DTD SVG 20010904//EN"
 "http://www.w3.org/TR/2001/REC-SVG-20010904/DTD/svg10.dtd">
<svg version="1.0" xmlns="http://www.w3.org/2000/svg"
 width="1000.000000pt" height="1000.000000pt" viewBox="0 0 1000.000000 1000.000000"
 preserveAspectRatio="xMidYMid meet">
<metadata>
Created by potrace 1.14, written by Peter Selinger 2001-2017
</metadata>
<g transform="translate(0.000000,1000.000000) scale(0.100000,-0.100000)"
fill="#000000" stroke="none">
<path d="M2199 9996 c-2 -2 -80 -6 -174 -10 -93 -3 -195 -8 -225 -10 -106 -9
-215 -18 -243 -21 -15 -2 -55 -6 -90 -10 -34 -4 -65 -9 -68 -11 -4 -2 -28 -6
-55 -9 -67 -7 -241 -47 -344 -80 -356 -114 -621 -342 -774 -666 -101 -213
-165 -501 -192 -859 -3 -41 -7 -93 -9 -115 -17 -152 -20 -708 -20 -3190 0
-2442 4 -3116 20 -3216 2 -13 6 -68 10 -121 3 -53 8 -107 10 -120 2 -13 7 -50
10 -83 16 -128 20 -152 45 -267 121 -548 393 -875 867 -1041 183 -64 440 -112
713 -133 47 -3 101 -8 120 -10 151 -15 777 -19 3210 -19 2464 0 3042 4 3195
20 22 2 76 7 120 10 84 6 147 12 205 21 19 2 53 7 75 10 81 10 286 55 367 80
100 31 243 90 280 116 14 10 29 18 33 18 21 0 171 117 246 192 186 185 304
424 372 753 14 66 28 143 31 170 4 28 8 61 11 75 3 14 7 50 9 80 3 30 8 84 11
120 11 128 14 167 22 340 10 223 11 5737 0 5967 -11 255 -23 401 -43 553 -9
75 -15 114 -20 140 -3 14 -9 49 -14 78 -25 147 -89 340 -157 476 -107 214
-300 410 -513 520 -76 40 -178 84 -205 90 -5 2 -42 12 -81 24 -122 38 -380 86
-519 98 -38 3 -81 7 -95 9 -14 2 -77 7 -140 10 -63 4 -142 9 -175 12 -64 6
-5820 15 -5826 9z"/>
</g>
</svg>
